<mxfile host="app.diagrams.net" modified="2021-09-09T06:36:18.427Z" agent="5.0 (X11; Linux x86_64) AppleWebKit/537.36 (KHTML, like Gecko) Chrome/92.0.4515.159 Safari/537.36" etag="JSrmxpbgyhOQPYTWJAnb" version="15.1.0" type="github" pages="4">
  <diagram id="TfbsqwK6pt8Qm60HU7U2" name="Systemkontext">
    <mxGraphModel dx="2574" dy="1433" grid="1" gridSize="10" guides="1" tooltips="1" connect="1" arrows="1" fold="1" page="1" pageScale="1" pageWidth="827" pageHeight="1169" math="0" shadow="0">
      <root>
        <mxCell id="0" />
        <mxCell id="1" parent="0" />
        <mxCell id="Y_D997t69sZmRWcaALsS-1" value="Agito" style="rounded=0;whiteSpace=wrap;html=1;" parent="1" vertex="1">
          <mxGeometry x="330" y="270" width="120" height="60" as="geometry" />
        </mxCell>
        <mxCell id="Y_D997t69sZmRWcaALsS-2" value="Finanzamt" style="ellipse;shape=cloud;whiteSpace=wrap;html=1;" parent="1" vertex="1">
          <mxGeometry x="210" y="90" width="120" height="80" as="geometry" />
        </mxCell>
        <mxCell id="Y_D997t69sZmRWcaALsS-3" value="Banken" style="ellipse;shape=cloud;whiteSpace=wrap;html=1;" parent="1" vertex="1">
          <mxGeometry x="90" y="230" width="120" height="80" as="geometry" />
        </mxCell>
        <mxCell id="Y_D997t69sZmRWcaALsS-4" value="" style="endArrow=none;html=1;" parent="1" source="Y_D997t69sZmRWcaALsS-1" target="Y_D997t69sZmRWcaALsS-3" edge="1">
          <mxGeometry width="50" height="50" relative="1" as="geometry">
            <mxPoint x="390" y="750" as="sourcePoint" />
            <mxPoint x="440" y="700" as="targetPoint" />
          </mxGeometry>
        </mxCell>
        <mxCell id="Y_D997t69sZmRWcaALsS-5" value="" style="endArrow=none;html=1;" parent="1" source="Y_D997t69sZmRWcaALsS-1" target="Y_D997t69sZmRWcaALsS-2" edge="1">
          <mxGeometry width="50" height="50" relative="1" as="geometry">
            <mxPoint x="350" y="170" as="sourcePoint" />
            <mxPoint x="400" y="120" as="targetPoint" />
          </mxGeometry>
        </mxCell>
        <mxCell id="Y_D997t69sZmRWcaALsS-6" value="Helga" style="shape=umlActor;verticalLabelPosition=bottom;verticalAlign=top;html=1;outlineConnect=0;" parent="1" vertex="1">
          <mxGeometry x="550" y="170" width="30" height="60" as="geometry" />
        </mxCell>
        <mxCell id="Y_D997t69sZmRWcaALsS-7" value="" style="endArrow=none;html=1;" parent="1" source="Y_D997t69sZmRWcaALsS-1" target="Y_D997t69sZmRWcaALsS-6" edge="1">
          <mxGeometry width="50" height="50" relative="1" as="geometry">
            <mxPoint x="390" y="750" as="sourcePoint" />
            <mxPoint x="440" y="700" as="targetPoint" />
          </mxGeometry>
        </mxCell>
        <mxCell id="xdBE-hOzKAyirTEN2S2--1" value="..." style="ellipse;shape=cloud;whiteSpace=wrap;html=1;" parent="1" vertex="1">
          <mxGeometry x="150" y="370" width="120" height="80" as="geometry" />
        </mxCell>
        <mxCell id="xdBE-hOzKAyirTEN2S2--2" value="" style="endArrow=none;html=1;" parent="1" source="Y_D997t69sZmRWcaALsS-1" target="xdBE-hOzKAyirTEN2S2--1" edge="1">
          <mxGeometry width="50" height="50" relative="1" as="geometry">
            <mxPoint x="340" y="302.5" as="sourcePoint" />
            <mxPoint x="218.97233121605905" y="287.3715414020073" as="targetPoint" />
          </mxGeometry>
        </mxCell>
        <mxCell id="xdBE-hOzKAyirTEN2S2--3" value="..." style="shape=umlActor;verticalLabelPosition=bottom;verticalAlign=top;html=1;outlineConnect=0;" parent="1" vertex="1">
          <mxGeometry x="510" y="430" width="30" height="60" as="geometry" />
        </mxCell>
        <mxCell id="xdBE-hOzKAyirTEN2S2--4" value="" style="endArrow=none;html=1;" parent="1" source="Y_D997t69sZmRWcaALsS-1" target="xdBE-hOzKAyirTEN2S2--3" edge="1">
          <mxGeometry width="50" height="50" relative="1" as="geometry">
            <mxPoint x="350.909090909091" y="340" as="sourcePoint" />
            <mxPoint x="264.2292484120444" y="392.97101485930625" as="targetPoint" />
          </mxGeometry>
        </mxCell>
        <mxCell id="XehaZe0G5EL70ozvgadj-1" value="Stefan" style="shape=umlActor;verticalLabelPosition=bottom;verticalAlign=top;html=1;outlineConnect=0;" parent="1" vertex="1">
          <mxGeometry x="590" y="300" width="30" height="60" as="geometry" />
        </mxCell>
        <mxCell id="XehaZe0G5EL70ozvgadj-2" value="" style="endArrow=none;html=1;" parent="1" source="Y_D997t69sZmRWcaALsS-1" target="XehaZe0G5EL70ozvgadj-1" edge="1">
          <mxGeometry width="50" height="50" relative="1" as="geometry">
            <mxPoint x="425.3125" y="340" as="sourcePoint" />
            <mxPoint x="520" y="452.2222222222222" as="targetPoint" />
          </mxGeometry>
        </mxCell>
      </root>
    </mxGraphModel>
  </diagram>
  <diagram id="Jv1kLO92tIrWVaZ94RhD" name="fachliche Komponenten">
    <mxGraphModel dx="2574" dy="1433" grid="1" gridSize="10" guides="1" tooltips="1" connect="1" arrows="1" fold="1" page="1" pageScale="1" pageWidth="827" pageHeight="1169" math="0" shadow="0">
      <root>
        <mxCell id="geWKs2Tu2c0srLXgy5YT-0" />
        <mxCell id="geWKs2Tu2c0srLXgy5YT-1" parent="geWKs2Tu2c0srLXgy5YT-0" />
        <mxCell id="WVqGNmkDF1XEmex8QxcM-0" value="«domain»&lt;br&gt;Buchungs-&lt;br&gt;organisation" style="ellipse;whiteSpace=wrap;html=1;" parent="geWKs2Tu2c0srLXgy5YT-1" vertex="1">
          <mxGeometry x="280" y="201" width="120" height="79" as="geometry" />
        </mxCell>
        <mxCell id="WVqGNmkDF1XEmex8QxcM-1" value="«domain»&lt;br&gt;Buchungen" style="ellipse;whiteSpace=wrap;html=1;" parent="geWKs2Tu2c0srLXgy5YT-1" vertex="1">
          <mxGeometry x="280" y="321" width="120" height="79" as="geometry" />
        </mxCell>
        <mxCell id="WVqGNmkDF1XEmex8QxcM-2" value="«domain»&lt;br&gt;Kontomanager" style="ellipse;whiteSpace=wrap;html=1;" parent="geWKs2Tu2c0srLXgy5YT-1" vertex="1">
          <mxGeometry x="280" y="81" width="120" height="79" as="geometry" />
        </mxCell>
        <mxCell id="WVqGNmkDF1XEmex8QxcM-3" value="&lt;span&gt;«domain»&lt;/span&gt;&lt;br&gt;Mandant" style="ellipse;whiteSpace=wrap;html=1;" parent="geWKs2Tu2c0srLXgy5YT-1" vertex="1">
          <mxGeometry x="40" y="81" width="120" height="79" as="geometry" />
        </mxCell>
        <mxCell id="WVqGNmkDF1XEmex8QxcM-4" value="&lt;span&gt;«domain»&lt;br&gt;&lt;/span&gt;GoDB" style="ellipse;whiteSpace=wrap;html=1;" parent="geWKs2Tu2c0srLXgy5YT-1" vertex="1">
          <mxGeometry x="520" y="201" width="120" height="79" as="geometry" />
        </mxCell>
        <mxCell id="WVqGNmkDF1XEmex8QxcM-5" value="" style="endArrow=classic;html=1;" parent="geWKs2Tu2c0srLXgy5YT-1" source="WVqGNmkDF1XEmex8QxcM-2" target="WVqGNmkDF1XEmex8QxcM-0" edge="1">
          <mxGeometry width="50" height="50" relative="1" as="geometry">
            <mxPoint x="430" y="-29" as="sourcePoint" />
            <mxPoint x="480" y="-79" as="targetPoint" />
          </mxGeometry>
        </mxCell>
        <mxCell id="WVqGNmkDF1XEmex8QxcM-6" value="" style="endArrow=classic;html=1;" parent="geWKs2Tu2c0srLXgy5YT-1" source="WVqGNmkDF1XEmex8QxcM-0" target="WVqGNmkDF1XEmex8QxcM-1" edge="1">
          <mxGeometry width="50" height="50" relative="1" as="geometry">
            <mxPoint x="350" y="171" as="sourcePoint" />
            <mxPoint x="350" y="211" as="targetPoint" />
          </mxGeometry>
        </mxCell>
        <mxCell id="WVqGNmkDF1XEmex8QxcM-7" value="" style="endArrow=classic;html=1;fillColor=#f5f5f5;strokeColor=#E3E3E3;" parent="geWKs2Tu2c0srLXgy5YT-1" source="WVqGNmkDF1XEmex8QxcM-2" target="WVqGNmkDF1XEmex8QxcM-4" edge="1">
          <mxGeometry width="50" height="50" relative="1" as="geometry">
            <mxPoint x="360" y="181" as="sourcePoint" />
            <mxPoint x="360" y="221" as="targetPoint" />
          </mxGeometry>
        </mxCell>
        <mxCell id="WVqGNmkDF1XEmex8QxcM-8" value="" style="endArrow=classic;html=1;fillColor=#f5f5f5;strokeColor=#E3E3E3;" parent="geWKs2Tu2c0srLXgy5YT-1" source="WVqGNmkDF1XEmex8QxcM-0" target="WVqGNmkDF1XEmex8QxcM-4" edge="1">
          <mxGeometry width="50" height="50" relative="1" as="geometry">
            <mxPoint x="398" y="155" as="sourcePoint" />
            <mxPoint x="542" y="227" as="targetPoint" />
          </mxGeometry>
        </mxCell>
        <mxCell id="WVqGNmkDF1XEmex8QxcM-9" value="" style="endArrow=classic;html=1;fillColor=#f5f5f5;strokeColor=#E3E3E3;" parent="geWKs2Tu2c0srLXgy5YT-1" source="WVqGNmkDF1XEmex8QxcM-1" target="WVqGNmkDF1XEmex8QxcM-4" edge="1">
          <mxGeometry width="50" height="50" relative="1" as="geometry">
            <mxPoint x="410" y="251" as="sourcePoint" />
            <mxPoint x="530" y="251" as="targetPoint" />
          </mxGeometry>
        </mxCell>
        <mxCell id="WVqGNmkDF1XEmex8QxcM-11" value="«domain»&lt;br&gt;Auswertungen" style="ellipse;whiteSpace=wrap;html=1;" parent="geWKs2Tu2c0srLXgy5YT-1" vertex="1">
          <mxGeometry x="280" y="441" width="120" height="79" as="geometry" />
        </mxCell>
        <mxCell id="WVqGNmkDF1XEmex8QxcM-12" value="" style="endArrow=classic;html=1;" parent="geWKs2Tu2c0srLXgy5YT-1" source="WVqGNmkDF1XEmex8QxcM-11" target="WVqGNmkDF1XEmex8QxcM-1" edge="1">
          <mxGeometry width="50" height="50" relative="1" as="geometry">
            <mxPoint x="590" y="441" as="sourcePoint" />
            <mxPoint x="350" y="331" as="targetPoint" />
          </mxGeometry>
        </mxCell>
        <mxCell id="OUkdG32yDKXZLdak4ljL-0" value="«domain»&lt;br style=&quot;&quot;&gt;Anlagevermögen" style="ellipse;whiteSpace=wrap;html=1;" parent="geWKs2Tu2c0srLXgy5YT-1" vertex="1">
          <mxGeometry x="520" y="321" width="120" height="79" as="geometry" />
        </mxCell>
        <mxCell id="lr-V3gKdvBvfX50TemmA-0" value="" style="endArrow=classic;html=1;" parent="geWKs2Tu2c0srLXgy5YT-1" source="OUkdG32yDKXZLdak4ljL-0" target="WVqGNmkDF1XEmex8QxcM-1" edge="1">
          <mxGeometry width="50" height="50" relative="1" as="geometry">
            <mxPoint x="350" y="290" as="sourcePoint" />
            <mxPoint x="350" y="331" as="targetPoint" />
          </mxGeometry>
        </mxCell>
        <mxCell id="lr-V3gKdvBvfX50TemmA-1" value="" style="endArrow=classic;html=1;fillColor=#f5f5f5;strokeColor=#E3E3E3;" parent="geWKs2Tu2c0srLXgy5YT-1" source="OUkdG32yDKXZLdak4ljL-0" target="WVqGNmkDF1XEmex8QxcM-4" edge="1">
          <mxGeometry width="50" height="50" relative="1" as="geometry">
            <mxPoint x="397.7813840796457" y="346.60930796017715" as="sourcePoint" />
            <mxPoint x="542.2186159203543" y="274.39069203982285" as="targetPoint" />
          </mxGeometry>
        </mxCell>
        <mxCell id="lr-V3gKdvBvfX50TemmA-2" value="«domain»&lt;br&gt;Jahresabschluss" style="ellipse;whiteSpace=wrap;html=1;" parent="geWKs2Tu2c0srLXgy5YT-1" vertex="1">
          <mxGeometry x="40" y="321" width="120" height="79" as="geometry" />
        </mxCell>
        <mxCell id="lr-V3gKdvBvfX50TemmA-3" value="" style="endArrow=classic;html=1;" parent="geWKs2Tu2c0srLXgy5YT-1" source="lr-V3gKdvBvfX50TemmA-2" target="WVqGNmkDF1XEmex8QxcM-1" edge="1">
          <mxGeometry width="50" height="50" relative="1" as="geometry">
            <mxPoint x="350" y="290" as="sourcePoint" />
            <mxPoint x="350" y="331" as="targetPoint" />
          </mxGeometry>
        </mxCell>
        <mxCell id="Xo4YqgEsehkYlfdIUlrs-0" value="«domain»&lt;br style=&quot;color: rgb(0 , 0 , 0)&quot;&gt;Kostenrechnung" style="ellipse;whiteSpace=wrap;html=1;strokeColor=#E3E3E3;fontColor=#E3E3E3;" vertex="1" parent="geWKs2Tu2c0srLXgy5YT-1">
          <mxGeometry x="300" y="600" width="120" height="79" as="geometry" />
        </mxCell>
        <mxCell id="Xo4YqgEsehkYlfdIUlrs-1" value="«domain»&lt;br style=&quot;color: rgb(0 , 0 , 0)&quot;&gt;Offene Posten" style="ellipse;whiteSpace=wrap;html=1;strokeColor=#E3E3E3;fontColor=#E3E3E3;" vertex="1" parent="geWKs2Tu2c0srLXgy5YT-1">
          <mxGeometry x="170" y="600" width="120" height="79" as="geometry" />
        </mxCell>
        <mxCell id="Xo4YqgEsehkYlfdIUlrs-2" value="«domain»&lt;br&gt;Dokumente" style="ellipse;whiteSpace=wrap;html=1;strokeColor=#E3E3E3;fontColor=#E3E3E3;" vertex="1" parent="geWKs2Tu2c0srLXgy5YT-1">
          <mxGeometry x="40" y="600" width="120" height="79" as="geometry" />
        </mxCell>
        <mxCell id="IBmhMBR8AccTXnoyM4Ro-0" value="«domain»&lt;br style=&quot;color: rgb(0 , 0 , 0)&quot;&gt;Zahlungsverkehr" style="ellipse;whiteSpace=wrap;html=1;strokeColor=#E3E3E3;fontColor=#E3E3E3;" vertex="1" parent="geWKs2Tu2c0srLXgy5YT-1">
          <mxGeometry x="430" y="600" width="120" height="79" as="geometry" />
        </mxCell>
        <mxCell id="IBmhMBR8AccTXnoyM4Ro-1" value="&lt;span&gt;«domain»&lt;/span&gt;&lt;br&gt;Benutzer" style="ellipse;whiteSpace=wrap;html=1;" vertex="1" parent="geWKs2Tu2c0srLXgy5YT-1">
          <mxGeometry x="40" y="171" width="120" height="79" as="geometry" />
        </mxCell>
      </root>
    </mxGraphModel>
  </diagram>
  <diagram id="RsEMWFsgzaWiaNlbOnW2" name="technische Komponenten">
    <mxGraphModel dx="2574" dy="1433" grid="1" gridSize="10" guides="1" tooltips="1" connect="1" arrows="1" fold="1" page="1" pageScale="1" pageWidth="827" pageHeight="1169" math="0" shadow="0">
      <root>
        <mxCell id="DksEPD38ZM9OaImTdq9A-0" />
        <mxCell id="DksEPD38ZM9OaImTdq9A-1" parent="DksEPD38ZM9OaImTdq9A-0" />
        <mxCell id="3TTuFEYPT2MIHC76LZfl-1" value="" style="rounded=0;whiteSpace=wrap;html=1;" parent="DksEPD38ZM9OaImTdq9A-1" vertex="1">
          <mxGeometry x="104" y="40" width="620" height="410" as="geometry" />
        </mxCell>
        <mxCell id="3TTuFEYPT2MIHC76LZfl-4" value="" style="rounded=0;whiteSpace=wrap;html=1;fillColor=#f9f7ed;strokeColor=#36393d;" parent="DksEPD38ZM9OaImTdq9A-1" vertex="1">
          <mxGeometry x="414" y="250" width="290" height="190" as="geometry" />
        </mxCell>
        <mxCell id="3TTuFEYPT2MIHC76LZfl-3" value="" style="rounded=0;whiteSpace=wrap;html=1;fillColor=#f5f5f5;strokeColor=#666666;fontColor=#333333;" parent="DksEPD38ZM9OaImTdq9A-1" vertex="1">
          <mxGeometry x="124" y="250" width="280" height="190" as="geometry" />
        </mxCell>
        <mxCell id="3TTuFEYPT2MIHC76LZfl-2" value="" style="rounded=0;whiteSpace=wrap;html=1;fillColor=#dae8fc;strokeColor=#6c8ebf;" parent="DksEPD38ZM9OaImTdq9A-1" vertex="1">
          <mxGeometry x="124" y="150" width="580" height="70" as="geometry" />
        </mxCell>
        <mxCell id="fkcX8cbr_2oD89F2kbgx-13" value="" style="rounded=0;whiteSpace=wrap;html=1;strokeColor=#6c8ebf;fillColor=#E6FFCC;" parent="DksEPD38ZM9OaImTdq9A-1" vertex="1">
          <mxGeometry x="124" y="50" width="580" height="70" as="geometry" />
        </mxCell>
        <mxCell id="fkcX8cbr_2oD89F2kbgx-14" value="«service»&lt;br&gt;&lt;b&gt;Buchung&lt;/b&gt;" style="html=1;dropTarget=0;" parent="DksEPD38ZM9OaImTdq9A-1" vertex="1">
          <mxGeometry x="324" y="160" width="180" height="50" as="geometry" />
        </mxCell>
        <mxCell id="fkcX8cbr_2oD89F2kbgx-15" value="" style="shape=module;jettyWidth=8;jettyHeight=4;" parent="fkcX8cbr_2oD89F2kbgx-14" vertex="1">
          <mxGeometry x="1" width="20" height="20" relative="1" as="geometry">
            <mxPoint x="-27" y="7" as="offset" />
          </mxGeometry>
        </mxCell>
        <mxCell id="fkcX8cbr_2oD89F2kbgx-16" value="«service»&lt;br&gt;&lt;b&gt;Mandant&lt;br&gt;&lt;/b&gt;" style="html=1;dropTarget=0;" parent="DksEPD38ZM9OaImTdq9A-1" vertex="1">
          <mxGeometry x="134" y="260" width="180" height="50" as="geometry" />
        </mxCell>
        <mxCell id="fkcX8cbr_2oD89F2kbgx-17" value="" style="shape=module;jettyWidth=8;jettyHeight=4;" parent="fkcX8cbr_2oD89F2kbgx-16" vertex="1">
          <mxGeometry x="1" width="20" height="20" relative="1" as="geometry">
            <mxPoint x="-27" y="7" as="offset" />
          </mxGeometry>
        </mxCell>
        <mxCell id="fkcX8cbr_2oD89F2kbgx-18" value="«service»&lt;br&gt;&lt;b&gt;Anlagevermögen&lt;br&gt;&lt;/b&gt;" style="html=1;dropTarget=0;" parent="DksEPD38ZM9OaImTdq9A-1" vertex="1">
          <mxGeometry x="514" y="60" width="180" height="50" as="geometry" />
        </mxCell>
        <mxCell id="fkcX8cbr_2oD89F2kbgx-19" value="" style="shape=module;jettyWidth=8;jettyHeight=4;" parent="fkcX8cbr_2oD89F2kbgx-18" vertex="1">
          <mxGeometry x="1" width="20" height="20" relative="1" as="geometry">
            <mxPoint x="-27" y="7" as="offset" />
          </mxGeometry>
        </mxCell>
        <mxCell id="fkcX8cbr_2oD89F2kbgx-20" value="«service»&lt;br&gt;&lt;b&gt;Kontomanager&lt;br&gt;&lt;/b&gt;" style="html=1;dropTarget=0;" parent="DksEPD38ZM9OaImTdq9A-1" vertex="1">
          <mxGeometry x="134" y="60" width="180" height="50" as="geometry" />
        </mxCell>
        <mxCell id="fkcX8cbr_2oD89F2kbgx-21" value="" style="shape=module;jettyWidth=8;jettyHeight=4;" parent="fkcX8cbr_2oD89F2kbgx-20" vertex="1">
          <mxGeometry x="1" width="20" height="20" relative="1" as="geometry">
            <mxPoint x="-27" y="7" as="offset" />
          </mxGeometry>
        </mxCell>
        <mxCell id="fkcX8cbr_2oD89F2kbgx-22" value="«service»&lt;br&gt;&lt;b&gt;Buchungs-&lt;br&gt;organisation&lt;br&gt;&lt;/b&gt;" style="html=1;dropTarget=0;" parent="DksEPD38ZM9OaImTdq9A-1" vertex="1">
          <mxGeometry x="324" y="60" width="180" height="50" as="geometry" />
        </mxCell>
        <mxCell id="fkcX8cbr_2oD89F2kbgx-23" value="" style="shape=module;jettyWidth=8;jettyHeight=4;" parent="fkcX8cbr_2oD89F2kbgx-22" vertex="1">
          <mxGeometry x="1" width="20" height="20" relative="1" as="geometry">
            <mxPoint x="-27" y="7" as="offset" />
          </mxGeometry>
        </mxCell>
        <mxCell id="fkcX8cbr_2oD89F2kbgx-24" value="«service»&lt;br&gt;&lt;b&gt;GoBD&lt;br&gt;&lt;/b&gt;" style="html=1;dropTarget=0;" parent="DksEPD38ZM9OaImTdq9A-1" vertex="1">
          <mxGeometry x="134" y="320" width="180" height="50" as="geometry" />
        </mxCell>
        <mxCell id="fkcX8cbr_2oD89F2kbgx-25" value="" style="shape=module;jettyWidth=8;jettyHeight=4;" parent="fkcX8cbr_2oD89F2kbgx-24" vertex="1">
          <mxGeometry x="1" width="20" height="20" relative="1" as="geometry">
            <mxPoint x="-27" y="7" as="offset" />
          </mxGeometry>
        </mxCell>
        <mxCell id="fkcX8cbr_2oD89F2kbgx-26" value="«service»&lt;br&gt;&lt;b&gt;Auswertung&lt;br&gt;&lt;/b&gt;" style="html=1;dropTarget=0;" parent="DksEPD38ZM9OaImTdq9A-1" vertex="1">
          <mxGeometry x="514" y="260" width="180" height="50" as="geometry" />
        </mxCell>
        <mxCell id="fkcX8cbr_2oD89F2kbgx-27" value="" style="shape=module;jettyWidth=8;jettyHeight=4;" parent="fkcX8cbr_2oD89F2kbgx-26" vertex="1">
          <mxGeometry x="1" width="20" height="20" relative="1" as="geometry">
            <mxPoint x="-27" y="7" as="offset" />
          </mxGeometry>
        </mxCell>
        <mxCell id="fkcX8cbr_2oD89F2kbgx-28" value="«service»&lt;br&gt;&lt;b&gt;Jahresabschluss&lt;br&gt;&lt;/b&gt;" style="html=1;dropTarget=0;" parent="DksEPD38ZM9OaImTdq9A-1" vertex="1">
          <mxGeometry x="514" y="320" width="180" height="50" as="geometry" />
        </mxCell>
        <mxCell id="fkcX8cbr_2oD89F2kbgx-29" value="" style="shape=module;jettyWidth=8;jettyHeight=4;" parent="fkcX8cbr_2oD89F2kbgx-28" vertex="1">
          <mxGeometry x="1" width="20" height="20" relative="1" as="geometry">
            <mxPoint x="-27" y="7" as="offset" />
          </mxGeometry>
        </mxCell>
        <mxCell id="fkcX8cbr_2oD89F2kbgx-36" value="«service»&lt;br&gt;&lt;b&gt;Benutzer&lt;br&gt;&lt;/b&gt;" style="html=1;dropTarget=0;" parent="DksEPD38ZM9OaImTdq9A-1" vertex="1">
          <mxGeometry x="134" y="380" width="180" height="50" as="geometry" />
        </mxCell>
        <mxCell id="fkcX8cbr_2oD89F2kbgx-37" value="" style="shape=module;jettyWidth=8;jettyHeight=4;" parent="fkcX8cbr_2oD89F2kbgx-36" vertex="1">
          <mxGeometry x="1" width="20" height="20" relative="1" as="geometry">
            <mxPoint x="-27" y="7" as="offset" />
          </mxGeometry>
        </mxCell>
      </root>
    </mxGraphModel>
  </diagram>
  <diagram id="UtG49OjuehTzZDv4U-XL" name="Buchungsdomain">
    <mxGraphModel dx="2574" dy="1433" grid="1" gridSize="10" guides="1" tooltips="1" connect="1" arrows="1" fold="1" page="1" pageScale="1" pageWidth="827" pageHeight="1169" math="0" shadow="0">
      <root>
        <mxCell id="gZ-g2k-7XlGbFRYFtA_T-0" />
        <mxCell id="gZ-g2k-7XlGbFRYFtA_T-1" parent="gZ-g2k-7XlGbFRYFtA_T-0" />
      </root>
    </mxGraphModel>
  </diagram>
</mxfile>
